***************************************************************

[IMG]http://www.hotimg.org/images/67363952943939111394.png[/IMG]

***************************************************************

[IMG]http://www.hotimg.org/images/88880059413038093609.jpg[/IMG]

***************************************************************

FILM TITLE: Real Steel (2011)

***************************************************************

Genre:  Action | Drama | Sci-Fi   

Rated PG-13 for some violence, intense action and brief language

Release:  25 November 2011 (Sweden)

Director: Shawn Levy

Writer: John Gatins (screenplay), Dan Gilroy (story)

Stars: Hugh Jackman, Evangeline Lilly and Dakota Goyo 

Country:  USA | India

Language:  English

Plot:
Set in the near future, where robot boxing is a top sport, a struggling 
promoter feels he's found a champion in a discarded robot. During his 
hopeful rise to the top, he discovers he has an 11-year-old son who 
wants to know his father.

IMDB Rating: 7.2/10 from 68,787 users   Metascore: 56/100
 
http://www.imdb.com/title/tt0433035/

****************************************************************

[URL=http://www.hotimg.org/viewer.php?file=69702106397326817295.png][IMG]http://www.hotimg.org/images/69702106397326817295_thumb.png[/IMG][/URL]
[URL=http://www.hotimg.org/viewer.php?file=74450252864037614713.png][IMG]http://www.hotimg.org/images/74450252864037614713_thumb.png[/IMG][/URL]
[URL=http://www.hotimg.org/viewer.php?file=99939744679491627544.png][IMG]http://www.hotimg.org/images/99939744679491627544_thumb.png[/IMG][/URL]
[URL=http://www.hotimg.org/viewer.php?file=88422765671009378471.png][IMG]http://www.hotimg.org/images/88422765671009378471_thumb.png[/IMG][/URL]
[URL=http://www.hotimg.org/viewer.php?file=52403244451273643971.png][IMG]http://www.hotimg.org/images/52403244451273643971_thumb.png[/IMG][/URL]

****************************************************************

General
Complete name                    : Real Steel 2011 720p BDRip XviD ac3 (avi) [GREYSHADOW].avi
Format                           : AVI
Format/Info                      : Audio Video Interleave
Format profile                   : OpenDML
File size                        : 3.76 GiB
Duration                         : 2h 6mn
Overall bit rate                 : 4247 Kbps
Writing library                  : VirtualDub build 32842/release

Video
ID                               : 0
Format                           : MPEG-4 Visual
Format profile                   : Simple@L5
Format settings, BVOP            : No
Format settings, QPel            : No
Format settings, GMC             : No warppoints
Format settings, Matrix          : Default (H.263)
Codec ID                         : XVID
Codec ID/Hint                    : XviD
Duration                         : 2h 6mn
Bit rate                         : 3597 Kbps
Width                            : 1280 pixels
Height                           : 544 pixels
Display aspect ratio             : 2.35:1
Frame rate                       : 23.976 fps
Color space                      : YUV
Chroma subsampling               : 4:2:0
Bit depth                        : 8 bits
Scan type                        : Progressive
Compression mode                 : Lossy
Bits/(Pixel*Frame)               : 0.215
Stream size                      : 3.19 GiB (85%)
Writing library                  : XviD 64

Audio
ID                               : 1
Format                           : AC-3
Format/Info                      : Audio Coding 3
Mode extension                   : CM (complete main)
Codec ID                         : 2000
Duration                         : 2h 6mn
Bit rate mode                    : Constant
Bit rate                         : 640 Kbps
Channel(s)                       : 6 channels
Channel positions                : Front: L C R, Side: L R, LFE
Sampling rate                    : 48.0 KHz
Bit depth                        : 16 bits
Compression mode                 : Lossy
Stream size                      : 581 MiB (15%)
Alignment                        : Aligned on interleaves
Interleave, duration             : 42 ms (1.00 video frame)
Interleave, preload duration     : 512 ms

****************************************************************

Video Source: Real Steel 2011 BluRay 1080p AVC DTS-HD MA5.1-CHDBits (46.12GB)

Thanks: CHP (chdbits.org)

****************************************************************

I provide a small sample, so please download this to check your 
compatibility first if you are unsure.

****************************************************************

Hash: 46AB87AEF3288F151FE7AD9720F102D69F2A5E8C

Trackers:
.udp://tracker.1337x.org:80/announce

****************************************************************